# xmcd
#
# Track frame offsets:
#	150
#	12686
#	24759
#	38888
#	52336
#	73346
#	82416
#	94552
#	104876
#	119767
#	137158
#	151213
#	164708
#	177276
#	195495
#	208384
#	225124
#	236567
#	259949
#	278543
#
# Disc length: 4055 seconds
#
# Revision: 1
# Processed by: cddbd v1.5.2PL0 Copyright (c) Steve Scherf et al.
# Submitted via: audiograbber 1.83.01
#
DISCID=2c0fd514
DTITLE=Freddy Fender - Live in Concert
DYEAR=2006
DGENRE=
TTITLE0=Wasted Days and Wasted Nights
TTITLE1=Before the Next Teardrop Falls
TTITLE2=Whiskey River
TTITLE3=I Can't Stop Loving You
TTITLE4=Six Days on the Road
TTITLE5=Loving Cajun Style
TTITLE6=Walking Piece of Heaven
TTITLE7=Sugar Coated Love
TTITLE8=Cielito Lindo
TTITLE9=Jambalay (On the Bayou)
TTITLE10=The Rains Came
TTITLE11=Mexican Rose
TTITLE12=Tell It Like It Is
TTITLE13=Secret Love
TTITLE14=Rancho Grande
TTITLE15=Next Time You See Me
TTITLE16=You'll Lose a Good Thing
TTITLE17=Holy One
TTITLE18=Vaya con Dios
TTITLE19=Since I Met You Baby
EXTD=
EXTT0=
EXTT1=
EXTT2=
EXTT3=
EXTT4=
EXTT5=
EXTT6=
EXTT7=
EXTT8=
EXTT9=
EXTT10=
EXTT11=
EXTT12=
EXTT13=
EXTT14=
EXTT15=
EXTT16=
EXTT17=
EXTT18=
EXTT19=
PLAYORDER=
